PathFileType	4	(X/Y/Z)	Patient4_TMGait_0pt4_02_left_31.trc.trc
DataRate	CameraRate	NumFrames	NumMarkers	Units	OrigDataRate	OrigDataStartFrame	OrigNumFrames
76.502732240437	76.502732240437	4	33	mm	76.502732240437	106	       141
Frame#	Time	Sacral			L.Shoulder			Chest			R.Shoulder			Neck			R.ASIS			L.ASIS			R.Thigh.Superior			R.Thigh.Lateral			R.Thigh.Inferior			R.Patella			L.Thigh.Superior			L.Thigh.Lateral			L.Thigh.Inferior			L.Patella			L.Shank.Superior			L.Shank.Lateral			L.Shank.Inferior			R.Shank.Superior			R.Shank.Lateral			R.Shank.Inferior			R.Heel			R.Midfoot.Superior			R.Midfoot.Lateral			R.Toe			L.Heel			L.Midfoot.Lateral			L.Midfoot.Superior			L.Toe			L.Elbow			L.Wrist			R.Elbow			R.Wrist			
		X1	Y1	Z1	X2	Y2	Z2	X3	Y3	Z3	X4	Y4	Z4	X5	Y5	Z5	X6	Y6	Z6	X7	Y7	Z7	X8	Y8	Z8	X9	Y9	Z9	X10	Y10	Z10	X11	Y11	Z11	X12	Y12	Z12	X13	Y13	Z13	X14	Y14	Z14	X15	Y15	Z15	X16	Y16	Z16	X17	Y17	Z17	X18	Y18	Z18	X19	Y19	Z19	X20	Y20	Z20	X21	Y21	Z21	X22	Y22	Z22	X23	Y23	Z23	X24	Y24	Z24	X25	Y25	Z25	X26	Y26	Z26	X27	Y27	Z27	X28	Y28	Z28	X29	Y29	Z29	X30	Y30	Z30	X31	Y31	Z31	X32	Y32	Z32	X33	Y33	Z33	

106	42.912500000000	849.464650526189	1006.420808246009	530.522652477942	1012.319978517138	1430.757727797016	327.360540980014	1130.748678338712	1367.645101340405	479.470990728887	1064.417731717383	1443.498403404923	659.647465844939	1008.650592702192	1495.790030972046	482.457648663922	1088.622500726577	942.700596964926	624.235975471487	1047.132166703235	966.292430521660	353.342159380028	1116.642382590328	736.923877787866	588.836711232908	1035.949583677686	630.512165145848	656.118825824720	1102.409038092505	576.301645245662	569.442317136091	1097.466341689611	488.989529720037	575.168688708076	1134.603113740018	786.096222179505	373.077260850876	1089.464531672191	660.325041054749	292.573629629534	1198.195095116470	602.561179909613	347.388208268449	1219.909273047328	522.531435727864	336.540496165999	1174.315018074347	449.207555115243	324.049684405158	1055.615075870080	362.038002606475	277.479910528693	1097.859794383828	233.288048952468	319.246849335158	1065.926589032143	400.228200925939	583.845458613390	992.271029935564	299.218414602977	646.808326485266	1025.569661551715	203.613662303993	581.338553184393	884.314743684234	42.257252493566	554.094569922426	1055.013086972439	96.882947955672	590.160693478991	967.239558315950	37.019683558358	629.571174812387	1175.605872180058	44.150546274343	618.477548553450	952.986862175319	96.918249856925	361.272325266878	1013.844500280576	85.356613325840	272.221049210222	1109.505728935204	131.056897283024	288.749817433307	1219.485001107641	62.111671639962	240.638885715862	956.839836012454	1074.922061127587	232.481745882512	982.354749596830	815.704132902665	229.629558754247	1153.192123227077	1118.533980851507	799.308288142215	1401.922566415509	1089.440446245828	749.261590214548	
107	42.925571428571	848.515958124908	1007.311432797447	531.798228033707	1011.369517578980	1430.968996341234	327.698346807491	1130.989462683589	1367.223288808707	478.571349658847	1066.836019667889	1443.481407452203	659.378754597545	1009.519624327198	1495.844052481017	482.847304456869	1087.876827919541	942.176694858087	623.285721626313	1044.496595154936	966.716508950336	352.707989101102	1113.905671749357	736.273456023001	587.524294794116	1033.003804817633	630.513134890889	655.823083104793	1098.122551389716	575.841422316742	568.656670158078	1092.684626930610	488.807296557430	574.683689072957	1131.382781743819	786.677033906193	373.098337275962	1087.283653691871	661.174738118279	292.119888127015	1195.092378728085	603.449675275627	348.703305892367	1218.278091773488	525.158713749706	337.236309829627	1176.210626319620	451.497323889850	324.143302633571	1063.203515069918	357.684810872250	276.604872452583	1112.905733432336	231.155523098276	318.335157206910	1061.050559948114	400.042153361152	583.557483288777	987.459932491985	299.104310500961	646.738868571966	1020.436501678650	203.489593263182	581.209364144748	879.004169602696	42.215391055638	554.141176925296	1049.695436009152	96.804841819291	590.027338852589	961.959500842495	36.991874522849	629.593648246087	1170.309714081103	44.230021599915	618.452844550522	976.429478063795	85.381976255909	359.507431025408	1038.402054292194	78.277191216879	270.621866015928	1130.986563164299	129.918454352667	287.612066177660	1245.531738270507	68.382146101318	239.661933822998	947.268024598703	1076.268817117825	234.494110042427	965.161114187294	816.495453171656	234.393940046230	1161.683521210961	1120.908623875686	798.430825503409	1410.591901763725	1107.010475956918	745.374265685484	
108	42.938642857143	847.624756189505	1008.171040887531	532.851883377580	1010.481089764220	1431.199388882444	327.887509146027	1131.269090842648	1366.760925447876	477.501800545597	1069.294254791006	1443.369637642723	658.936018666806	1010.438406375282	1495.863480969874	483.119386824525	1087.158439471883	941.646413042519	622.211331425844	1042.015489471028	967.027214663093	351.935200555610	1111.182731730166	735.607983257425	586.229574041006	1030.039044001229	630.519810614370	655.520121764188	1093.822565471610	575.371993742833	567.887040839712	1087.876906486621	488.618430855497	574.218925175254	1128.089560979653	786.987681208929	373.176412371068	1085.139234403230	661.892507730009	291.499140174473	1191.809323705845	604.035886462610	350.012897057447	1216.403890790434	527.549819041002	337.982814765022	1177.814104168386	453.676603210590	324.406708553817	1070.853027191903	353.730470804266	275.509144954908	1127.286781769639	229.776621840353	317.727784171237	1056.153779358852	399.868029640607	583.277678987234	982.637039465546	299.005652904635	646.687332063917	1015.296675795863	203.379628481546	581.095325143892	873.697186679394	42.180925868125	554.195657449155	1044.378277800152	96.723178812132	589.901917291298	956.680334878240	36.963022602534	629.619224331007	1165.015716864191	44.288577137369	618.432434311523	999.038599156423	75.688191282190	357.532104674502	1062.404212710863	72.536906676097	269.295460575404	1151.638268483810	129.656902324318	287.144371195042	1270.330616925070	75.129363042956	240.388510500792	937.725636746920	1077.901330953795	236.413594049657	948.785777914183	817.831582783328	239.016807925791	1169.921591414327	1123.146243482847	797.214745785034	1418.112074541415	1123.728186434158	741.384187937201	
109	42.951714285714	846.786858187753	1008.997218737779	533.667148489901	1009.655094078640	1431.452484497169	327.922149081243	1131.572384066799	1366.273852994382	476.273617506002	1071.752403352529	1443.178556186898	658.319926510172	1011.374073752925	1495.862618837589	483.245028622315	1086.471534013595	941.127210190946	621.026295924665	1039.710325587917	967.238559791921	351.025134694389	1108.486994479330	734.926305055532	584.985262216306	1027.050248161568	630.528804457283	655.201458372671	1089.532706616726	574.889588598006	567.139857205753	1083.060374315146	488.414437441348	573.762377861729	1124.806284665645	787.093379667431	373.287595195614	1083.064693796049	662.482149970574	290.753875695909	1188.490006809083	604.374830203092	351.190260893537	1214.382854749200	529.705441541951	338.736362582667	1179.155576464445	455.730161544618	324.812284380473	1078.398240931414	350.279124027765	274.251528393888	1140.718874098378	229.131660397757	317.428095739590	1051.249280515405	399.704474196090	582.998760180537	977.805029106073	298.928969839110	646.646076452482	1010.154228006260	203.285607558563	580.993149863319	868.394996739603	42.154557095158	554.257222660443	1039.061851178892	96.641142391673	589.787155204722	951.401454957136	36.934269421184	629.648067186342	1159.723798725566	44.328115050663	618.417116106280	1020.287018987534	67.915302756037	355.439668522170	1085.318703722552	68.142532336972	268.297771331186	1171.052548985696	130.190195519964	287.333635070114	1293.445328236297	82.110504028141	242.740792317962	928.343990336878	1079.795731497366	238.253742390352	933.246104052104	819.616114229587	243.439935263583	1177.859644913013	1125.233235963846	795.667621786217	1424.576685373131	1139.443576480618	737.331374132529	
